<svg width="5714" height="1558" viewBox="0 0 5714 1558" fill="none" xmlns="http://www.w3.org/2000/svg">
<rect width="5714" height="1558" fill="black"/>
<path d="M625.462 666.427C490.825 635.611 427.537 608.722 427.537 544.371C427.537 487.874 478.287 446.786 569.637 446.786C653.225 446.786 763.681 473.675 842.493 507.21L916.229 360.682C828.462 322.313 709.349 287.569 573.518 287.569C369.025 287.569 243.344 400.562 243.344 559.779C243.344 738.332 392.012 790.901 575.906 833.5C706.662 864.316 766.368 891.205 766.368 952.837C766.368 1019.61 707.856 1055.56 610.237 1055.56C498.587 1055.56 415.894 1044.08 297.975 986.372L232 1128.67C374.1 1200.58 451.718 1214.78 603.968 1214.78C812.043 1214.78 950.262 1112.05 950.262 937.429C950.262 771.867 818.312 710.235 625.462 666.427Z" fill="white"/>
<path d="M1625.1 506.002L1447.47 979.726H1434.64L1253.13 506.002H1068.04L1337.02 1203.29H1352.24C1312.84 1284.26 1227.75 1308.73 1132.52 1308.73H1113.72L1091.92 1443.48C1111.03 1444.69 1131.33 1444.69 1154.32 1444.69C1298.8 1444.69 1461.2 1398.46 1522.1 1240.46L1806.6 506.002H1625.1Z" fill="white"/>
<path d="M1903.68 1203.29H2081.6V235H1903.68V1203.29Z" fill="white"/>
<path d="M2172.36 1203.29H2350.28V235H2172.36V1203.29Z" fill="white"/>
<path d="M2985.63 506.002V549.507C2927.12 514.763 2856.07 491.802 2783.83 491.802C2567.99 491.802 2441.12 666.428 2441.12 852.534C2441.12 1037.73 2567.99 1213.57 2783.83 1213.57C2859.95 1213.57 2928.62 1190.3 2985.63 1151.93V1203.29H3162.07V506.002H2985.63ZM2985.63 993.926C2942.35 1031.09 2882.94 1053.14 2815.47 1053.14C2691.28 1053.14 2611.28 957.973 2611.28 852.534C2611.28 748.604 2689.79 653.436 2815.47 653.436C2881.45 653.436 2942.35 676.7 2985.63 713.86V993.926Z" fill="white"/>
<path d="M3653.81 493.01C3580.37 493.01 3511.71 513.555 3453.5 545.579V235H3277.07V1203.29H3453.5V1159.49C3510.52 1194.23 3581.57 1214.78 3653.81 1214.78C3846.96 1214.78 4003.09 1068.55 4003.09 854.044C4003.09 635.611 3846.96 493.01 3653.81 493.01ZM3622.17 1053.14C3556.19 1053.14 3496.49 1029.88 3453.5 992.717V712.652C3496.49 676.699 3555 653.436 3622.17 653.436C3741.58 653.436 3829.05 739.54 3829.05 854.044C3829.05 972.173 3741.58 1053.14 3622.17 1053.14Z" fill="white"/>
<path d="M5482.64 654.78V507.345H5289.79V236.344H5112.17V507.345H5014.25V654.78H5112.17V995.269C5112.17 1141.8 5204.71 1214.91 5320.24 1214.91C5419.06 1214.91 5472.49 1191.65 5480.25 1189.23V1055.69C5456.07 1058.11 5429.21 1062.04 5398.76 1062.04C5310.09 1062.04 5289.79 1026.09 5289.79 901.612V654.78H5482.64Z" fill="white"/>
<path d="M4454.5 950.475C4454.5 964.849 4450.6 977.67 4443.58 989.325C4430.32 966.403 4405.36 950.475 4376.5 950.475C4347.64 950.475 4322.68 966.403 4309.42 989.325C4302.79 977.67 4298.5 964.849 4298.5 950.475C4298.5 907.74 4333.6 872.775 4376.5 872.775C4419.4 872.775 4454.5 907.74 4454.5 950.475ZM4942 931.05V1047.6C4942 1068.97 4924.45 1086.45 4903 1086.45H4864V1125.3C4864 1168.42 4829.29 1203 4786 1203H4240C4197.1 1203 4162 1168.42 4162 1125.3V1086.45H4123C4101.55 1086.45 4084 1068.97 4084 1047.6V931.05C4084 909.682 4101.55 892.2 4123 892.2H4162C4162 741.85 4284.07 620.25 4435 620.25H4474V570.91C4450.6 557.701 4435 532.449 4435 503.7C4435 460.965 4470.1 426 4513 426C4555.9 426 4591 460.965 4591 503.7C4591 532.449 4575.4 557.701 4552 570.91V620.25H4591C4741.93 620.25 4864 741.85 4864 892.2H4903C4924.45 892.2 4942 909.682 4942 931.05ZM4864 969.9H4786V892.2C4786 784.974 4698.64 697.95 4591 697.95H4435C4327.36 697.95 4240 784.974 4240 892.2V969.9H4162V1008.75H4240V1125.3H4786V1008.75H4864V969.9ZM4649.5 872.775C4606.6 872.775 4571.5 907.74 4571.5 950.475C4571.5 964.849 4575.79 977.67 4582.42 989.325C4595.68 966.403 4620.64 950.475 4649.5 950.475C4678.36 950.475 4703.32 966.403 4716.58 989.325C4723.6 977.67 4727.5 964.849 4727.5 950.475C4727.5 907.74 4692.79 872.775 4649.5 872.775Z" fill="#DC4405"/>
<path d="M4454.5 950.475C4454.5 964.849 4450.6 977.67 4443.58 989.325C4430.32 966.403 4405.36 950.475 4376.5 950.475C4347.64 950.475 4322.68 966.403 4309.42 989.325C4302.79 977.67 4298.5 964.849 4298.5 950.475C4298.5 907.74 4333.6 872.775 4376.5 872.775C4419.4 872.775 4454.5 907.74 4454.5 950.475ZM4942 931.05V1047.6C4942 1068.97 4924.45 1086.45 4903 1086.45H4864V1125.3C4864 1168.42 4829.29 1203 4786 1203H4240C4197.1 1203 4162 1168.42 4162 1125.3V1086.45H4123C4101.55 1086.45 4084 1068.97 4084 1047.6V931.05C4084 909.682 4101.55 892.2 4123 892.2H4162C4162 741.85 4284.07 620.25 4435 620.25H4474V570.91C4450.6 557.701 4435 532.449 4435 503.7C4435 460.965 4470.1 426 4513 426C4555.9 426 4591 460.965 4591 503.7C4591 532.449 4575.4 557.701 4552 570.91V620.25H4591C4741.93 620.25 4864 741.85 4864 892.2H4903C4924.45 892.2 4942 909.682 4942 931.05ZM4864 969.9H4786V892.2C4786 784.974 4698.64 697.95 4591 697.95H4435C4327.36 697.95 4240 784.974 4240 892.2V969.9H4162V1008.75H4240V1125.3H4786V1008.75H4864V969.9ZM4649.5 872.775C4606.6 872.775 4571.5 907.74 4571.5 950.475C4571.5 964.849 4575.79 977.67 4582.42 989.325C4595.68 966.403 4620.64 950.475 4649.5 950.475C4678.36 950.475 4703.32 966.403 4716.58 989.325C4723.6 977.67 4727.5 964.849 4727.5 950.475C4727.5 907.74 4692.79 872.775 4649.5 872.775Z" stroke="black"/>
</svg>
