<svg width="105" height="105" viewBox="0 0 105 105" fill="none" xmlns="http://www.w3.org/2000/svg">
<path d="M71.5909 66.8182H38.1818V57.2727H71.5909V66.8182ZM85.9091 47.7273H38.1818V38.1818H85.9091V47.7273ZM85.9091 28.6364H38.1818V19.0909H85.9091V28.6364ZM9.54545 19.0909V95.4545H85.9091V105H9.54545C7.01384 105 4.58592 103.994 2.7958 102.204C1.00568 100.414 0 97.9862 0 95.4545V19.0909H9.54545ZM95.4545 0C97.9862 0 100.414 1.00568 102.204 2.7958C103.994 4.58592 105 7.01384 105 9.54545V76.3636C105 81.6614 100.752 85.9091 95.4545 85.9091H28.6364C26.1048 85.9091 23.6768 84.9034 21.8867 83.1133C20.0966 81.3232 19.0909 78.8953 19.0909 76.3636V9.54545C19.0909 4.24773 23.3386 0 28.6364 0H95.4545ZM28.6364 9.54545V76.3636H95.4545V9.54545H28.6364Z" fill="#DC4405"/>
</svg>
