<svg width="5735" height="1943" viewBox="0 0 5735 2043" fill="none" xmlns="http://www.w3.org/2000/svg">
<path d="M429.757 1156.32C282.701 1125.17 213.574 1097.99 213.574 1032.94C213.574 975.832 269.006 934.299 368.783 934.299C460.082 934.299 580.727 961.479 666.809 995.377L747.347 847.263C651.483 808.479 521.382 773.359 373.022 773.359C149.665 773.359 12.3906 887.575 12.3906 1048.51C12.3906 1229 174.772 1282.14 375.63 1325.2C518.448 1356.35 583.661 1383.53 583.661 1445.83C583.661 1513.32 519.752 1549.66 413.128 1549.66C291.179 1549.66 200.858 1538.05 72.061 1479.72L0 1623.56C155.208 1696.25 239.986 1710.6 406.28 1710.6C633.55 1710.6 784.519 1606.77 784.519 1430.25C784.519 1262.9 640.397 1200.6 429.757 1156.32Z" fill="black"/>
<path d="M1521.6 994.155L1327.59 1473.01H1313.57L1115.32 994.155H913.162L1206.95 1698.99H1223.58C1180.54 1780.84 1087.61 1805.57 983.593 1805.57H963.05L939.248 1941.78C960.116 1943 982.288 1943 1007.4 1943C1165.21 1943 1342.59 1896.28 1409.11 1736.56L1719.85 994.155H1521.6Z" fill="black"/>
<path d="M1825.89 1698.99H2020.22V720.221H1825.89V1698.99Z" fill="black"/>
<path d="M2119.35 1698.99H2313.69V720.221H2119.35V1698.99Z" fill="black"/>
<path d="M3007.65 994.155V1038.13C2943.74 1003.01 2866.14 979.802 2787.23 979.802C2551.48 979.802 2412.9 1156.32 2412.9 1344.44C2412.9 1531.64 2551.48 1709.38 2787.23 1709.38C2870.38 1709.38 2945.37 1685.86 3007.65 1647.08V1698.99H3200.36V994.155H3007.65ZM3007.65 1487.36C2960.37 1524.92 2895.48 1547.22 2821.79 1547.22C2686.15 1547.22 2598.76 1451.02 2598.76 1344.44C2598.76 1239.38 2684.52 1143.19 2821.79 1143.19C2893.85 1143.19 2960.37 1166.7 3007.65 1204.26V1487.36Z" fill="black"/>
<path d="M3737.46 981.023C3657.25 981.023 3582.25 1001.79 3518.67 1034.16V720.221H3325.96V1698.99H3518.67V1654.71C3580.95 1689.83 3658.55 1710.6 3737.46 1710.6C3948.43 1710.6 4118.96 1562.79 4118.96 1345.96C4118.96 1125.17 3948.43 981.023 3737.46 981.023ZM3702.9 1547.22C3630.84 1547.22 3565.62 1523.7 3518.67 1486.14V1203.04C3565.62 1166.7 3629.53 1143.19 3702.9 1143.19C3833.32 1143.19 3928.86 1230.22 3928.86 1345.96C3928.86 1465.37 3833.32 1547.22 3702.9 1547.22Z" fill="black"/>
<path d="M5735 1144.54V995.513H5524.36V721.579H5330.35V995.513H5223.4V1144.54H5330.35V1488.72C5330.35 1636.83 5431.43 1710.74 5557.62 1710.74C5665.55 1710.74 5723.91 1687.22 5732.39 1684.78V1549.8C5705.98 1552.24 5676.63 1556.21 5643.38 1556.21C5546.53 1556.21 5524.36 1519.87 5524.36 1394.05V1144.54H5735Z" fill="black"/>
<path d="M4623.2 1443.83C4623.2 1458.37 4618.95 1471.35 4611.29 1483.14C4596.81 1459.95 4569.57 1443.83 4538.07 1443.83C4506.57 1443.83 4479.33 1459.95 4464.85 1483.14C4457.62 1471.35 4452.93 1458.37 4452.93 1443.83C4452.93 1400.59 4491.25 1365.22 4538.07 1365.22C4584.89 1365.22 4623.2 1400.59 4623.2 1443.83ZM5155.3 1424.18V1542.1C5155.3 1563.72 5136.14 1581.41 5112.73 1581.41H5070.16V1620.71C5070.16 1664.35 5032.28 1699.33 4985.03 1699.33H4389.08C4342.26 1699.33 4303.95 1664.35 4303.95 1620.71V1581.41H4261.38C4237.97 1581.41 4218.81 1563.72 4218.81 1542.1V1424.18C4218.81 1402.56 4237.97 1384.87 4261.38 1384.87H4303.95C4303.95 1232.75 4437.18 1109.72 4601.92 1109.72H4644.49V1059.8C4618.95 1046.43 4601.92 1020.88 4601.92 991.796C4601.92 948.558 4640.23 913.181 4687.06 913.181C4733.88 913.181 4772.19 948.558 4772.19 991.796C4772.19 1020.88 4755.16 1046.43 4729.62 1059.8V1109.72H4772.19C4936.93 1109.72 5070.16 1232.75 5070.16 1384.87H5112.73C5136.14 1384.87 5155.3 1402.56 5155.3 1424.18ZM5070.16 1463.48H4985.03V1384.87C4985.03 1276.38 4889.68 1188.33 4772.19 1188.33H4601.92C4484.43 1188.33 4389.08 1276.38 4389.08 1384.87V1463.48H4303.95V1502.79H4389.08V1620.71H4985.03V1502.79H5070.16V1463.48ZM4836.04 1365.22C4789.22 1365.22 4750.91 1400.59 4750.91 1443.83C4750.91 1458.37 4755.59 1471.35 4762.83 1483.14C4777.3 1459.95 4804.54 1443.83 4836.04 1443.83C4867.54 1443.83 4894.79 1459.95 4909.26 1483.14C4916.92 1471.35 4921.18 1458.37 4921.18 1443.83C4921.18 1400.59 4883.29 1365.22 4836.04 1365.22Z" fill="#DC4405"/>
<path d="M4623.2 1443.83C4623.2 1458.37 4618.95 1471.35 4611.29 1483.14C4596.81 1459.95 4569.57 1443.83 4538.07 1443.83C4506.57 1443.83 4479.33 1459.95 4464.85 1483.14C4457.62 1471.35 4452.93 1458.37 4452.93 1443.83C4452.93 1400.59 4491.25 1365.22 4538.07 1365.22C4584.89 1365.22 4623.2 1400.59 4623.2 1443.83ZM5155.3 1424.18V1542.1C5155.3 1563.72 5136.14 1581.41 5112.73 1581.41H5070.16V1620.71C5070.16 1664.35 5032.28 1699.33 4985.03 1699.33H4389.08C4342.26 1699.33 4303.95 1664.35 4303.95 1620.71V1581.41H4261.38C4237.97 1581.41 4218.81 1563.72 4218.81 1542.1V1424.18C4218.81 1402.56 4237.97 1384.87 4261.38 1384.87H4303.95C4303.95 1232.75 4437.18 1109.72 4601.92 1109.72H4644.49V1059.8C4618.95 1046.43 4601.92 1020.88 4601.92 991.796C4601.92 948.558 4640.23 913.181 4687.06 913.181C4733.88 913.181 4772.19 948.558 4772.19 991.796C4772.19 1020.88 4755.16 1046.43 4729.62 1059.8V1109.72H4772.19C4936.93 1109.72 5070.16 1232.75 5070.16 1384.87H5112.73C5136.14 1384.87 5155.3 1402.56 5155.3 1424.18ZM5070.16 1463.48H4985.03V1384.87C4985.03 1276.38 4889.68 1188.33 4772.19 1188.33H4601.92C4484.43 1188.33 4389.08 1276.38 4389.08 1384.87V1463.48H4303.95V1502.79H4389.08V1620.71H4985.03V1502.79H5070.16V1463.48ZM4836.04 1365.22C4789.22 1365.22 4750.91 1400.59 4750.91 1443.83C4750.91 1458.37 4755.59 1471.35 4762.83 1483.14C4777.3 1459.95 4804.54 1443.83 4836.04 1443.83C4867.54 1443.83 4894.79 1459.95 4909.26 1483.14C4916.92 1471.35 4921.18 1458.37 4921.18 1443.83C4921.18 1400.59 4883.29 1365.22 4836.04 1365.22Z" stroke="black"/>
</svg>
