<svg width="48" height="48" viewBox="0 0 48 48" fill="none" xmlns="http://www.w3.org/2000/svg">
<path d="M24 0C10.7419 0 0 10.7419 0 24C0 37.2581 10.7419 48 24 48C37.2581 48 48 37.2581 48 24C48 10.7419 37.2581 0 24 0ZM24 9.29032C28.7032 9.29032 32.5161 13.1032 32.5161 17.8065C32.5161 22.5097 28.7032 26.3226 24 26.3226C19.2968 26.3226 15.4839 22.5097 15.4839 17.8065C15.4839 13.1032 19.2968 9.29032 24 9.29032ZM24 42.5806C18.3194 42.5806 13.229 40.0064 9.82258 35.9806C11.6419 32.5548 15.2032 30.1935 19.3548 30.1935C19.5871 30.1935 19.8194 30.2323 20.0419 30.3C21.3 30.7065 22.6161 30.9677 24 30.9677C25.3839 30.9677 26.7097 30.7065 27.9581 30.3C28.1806 30.2323 28.4129 30.1935 28.6452 30.1935C32.7968 30.1935 36.3581 32.5548 38.1774 35.9806C34.771 40.0064 29.6806 42.5806 24 42.5806Z" fill="#292929"/>
</svg>
